HIERARCHY
ROOT Hips
{
	OFFSET -14.64140 90.27770 -84.91600
	CHANNELS 6 Xposition Yposition Zposition Zrotation Xrotation Yrotation
	JOINT Spine
	{
		OFFSET 0.00000 13.20850 -1.60436
		CHANNELS 3 Zrotation Xrotation Yrotation
		JOINT Spine1
		{
			OFFSET 0.00000 8.61716 0.00000
			CHANNELS 3 Zrotation Xrotation Yrotation
			JOINT Spine2
			{
				OFFSET 0.00000 8.61717 0.00000
				CHANNELS 3 Zrotation Xrotation Yrotation
				JOINT Spine3
				{
					OFFSET 0.00000 8.61717 0.00000
					CHANNELS 3 Zrotation Xrotation Yrotation
					JOINT Neck
					{
						OFFSET 0.00000 11.07920 1.10792
						CHANNELS 3 Zrotation Xrotation Yrotation
						JOINT Neck1
						{
							OFFSET 0.00000 7.08032 0.00000
							CHANNELS 3 Zrotation Xrotation Yrotation
							JOINT Head
							{
								OFFSET 0.00000 7.08031 0.00000
								CHANNELS 3 Zrotation Xrotation Yrotation
								End site
								{
									OFFSET 0.00000 0.00000 0.00000
								}
							}
						}
					}
					JOINT RightShoulder
					{
						OFFSET -0.01000 7.91373 5.19711
						CHANNELS 3 Zrotation Xrotation Yrotation
						JOINT RightArm
						{
							OFFSET -18.41580 0.00000 0.00000
							CHANNELS 3 Zrotation Xrotation Yrotation
							JOINT RightForeArm
							{
								OFFSET -29.11090 0.00000 0.00000
								CHANNELS 3 Zrotation Xrotation Yrotation
								JOINT RightHand
								{
									OFFSET -24.65040 0.00000 0.00000
									CHANNELS 3 Zrotation Xrotation Yrotation
									JOINT RightHandThumb1
									{
										OFFSET -5.35114 -0.85590 3.97906
										CHANNELS 3 Zrotation Xrotation Yrotation
										JOINT RightHandThumb2
										{
											OFFSET -4.52789 0.00000 0.00000
											CHANNELS 3 Zrotation Xrotation Yrotation
											JOINT RightHandThumb3
											{
												OFFSET -2.46976 0.00000 0.00000
												CHANNELS 3 Zrotation Xrotation Yrotation
												End site
												{
													OFFSET 0.00000 0.00000 0.00000
												}
											}
										}
									}
									JOINT RightHandIndex1
									{
										OFFSET -14.26970 0.00000 2.88139
										CHANNELS 3 Zrotation Xrotation Yrotation
										JOINT RightHandIndex2
										{
											OFFSET -5.48836 0.00000 0.00000
											CHANNELS 3 Zrotation Xrotation Yrotation
											JOINT RightHandIndex3
											{
												OFFSET -3.01859 0.00000 0.00000
												CHANNELS 3 Zrotation Xrotation Yrotation
												End site
												{
													OFFSET 0.00000 0.00000 0.00000
												}
											}
										}
									}
									JOINT RightHandMiddle1
									{
										OFFSET -14.26970 0.00000 -0.09147
										CHANNELS 3 Zrotation Xrotation Yrotation
										JOINT RightHandMiddle2
										{
											OFFSET -6.17441 0.00000 0.00000
											CHANNELS 3 Zrotation Xrotation Yrotation
											JOINT RightHandMiddle3
											{
												OFFSET -3.56743 0.00000 0.00000
												CHANNELS 3 Zrotation Xrotation Yrotation
												End site
												{
													OFFSET 0.00000 0.00000 0.00000
												}
											}
										}
									}
									JOINT RightHandRing1
									{
										OFFSET -12.69180 0.00000 -3.06433
										CHANNELS 3 Zrotation Xrotation Yrotation
										JOINT RightHandRing2
										{
											OFFSET -5.62556 0.00000 0.00000
											CHANNELS 3 Zrotation Xrotation Yrotation
											JOINT RightHandRing3
											{
												OFFSET -3.56744 0.00000 0.00000
												CHANNELS 3 Zrotation Xrotation Yrotation
												End site
												{
													OFFSET 0.00000 0.00000 0.00000
												}
											}
										}
									}
									JOINT RightHandPinky1
									{
										OFFSET -11.11390 0.00000 -6.03719
										CHANNELS 3 Zrotation Xrotation Yrotation
										JOINT RightHandPinky2
										{
											OFFSET -4.52789 0.00000 0.00000
											CHANNELS 3 Zrotation Xrotation Yrotation
											JOINT RightHandPinky3
											{
												OFFSET -2.46976 0.00000 0.00000
												CHANNELS 3 Zrotation Xrotation Yrotation
												End site
												{
													OFFSET 0.00000 0.00000 0.00000
												}
											}
										}
									}
								}
							}
						}
					}
					JOINT LeftShoulder
					{
						OFFSET 0.01000 7.91373 5.19711
						CHANNELS 3 Zrotation Xrotation Yrotation
						JOINT LeftArm
						{
							OFFSET 18.41580 0.00000 0.00000
							CHANNELS 3 Zrotation Xrotation Yrotation
							JOINT LeftForeArm
							{
								OFFSET 29.11090 0.00000 0.00000
								CHANNELS 3 Zrotation Xrotation Yrotation
								JOINT LeftHand
								{
									OFFSET 24.65040 0.00000 0.00000
									CHANNELS 3 Zrotation Xrotation Yrotation
									JOINT LeftHandThumb1
									{
										OFFSET 5.35114 -0.85590 3.97906
										CHANNELS 3 Zrotation Xrotation Yrotation
										JOINT LeftHandThumb2
										{
											OFFSET 4.52789 0.00000 0.00000
											CHANNELS 3 Zrotation Xrotation Yrotation
											JOINT LeftHandThumb3
											{
												OFFSET 2.46977 0.00000 0.00000
												CHANNELS 3 Zrotation Xrotation Yrotation
												End site
												{
													OFFSET 0.00000 0.00000 0.00000
												}
											}
										}
									}
									JOINT LeftHandIndex1
									{
										OFFSET 14.26970 0.00000 2.88139
										CHANNELS 3 Zrotation Xrotation Yrotation
										JOINT LeftHandIndex2
										{
											OFFSET 5.48836 0.00000 0.00000
											CHANNELS 3 Zrotation Xrotation Yrotation
											JOINT LeftHandIndex3
											{
												OFFSET 3.01859 0.00000 0.00000
												CHANNELS 3 Zrotation Xrotation Yrotation
												End site
												{
													OFFSET 0.00000 0.00000 0.00000
												}
											}
										}
									}
									JOINT LeftHandMiddle1
									{
										OFFSET 14.26970 0.00000 -0.09147
										CHANNELS 3 Zrotation Xrotation Yrotation
										JOINT LeftHandMiddle2
										{
											OFFSET 6.17440 0.00000 0.00000
											CHANNELS 3 Zrotation Xrotation Yrotation
											JOINT LeftHandMiddle3
											{
												OFFSET 3.56744 0.00000 0.00000
												CHANNELS 3 Zrotation Xrotation Yrotation
												End site
												{
													OFFSET 0.00000 0.00000 0.00000
												}
											}
										}
									}
									JOINT LeftHandRing1
									{
										OFFSET 12.69180 0.00000 -3.06433
										CHANNELS 3 Zrotation Xrotation Yrotation
										JOINT LeftHandRing2
										{
											OFFSET 5.62556 0.00000 0.00000
											CHANNELS 3 Zrotation Xrotation Yrotation
											JOINT LeftHandRing3
											{
												OFFSET 3.56744 0.00000 0.00000
												CHANNELS 3 Zrotation Xrotation Yrotation
												End site
												{
													OFFSET 0.00000 0.00000 0.00000
												}
											}
										}
									}
									JOINT LeftHandPinky1
									{
										OFFSET 11.11390 0.00000 -6.03719
										CHANNELS 3 Zrotation Xrotation Yrotation
										JOINT LeftHandPinky2
										{
											OFFSET 4.52789 0.00000 0.00000
											CHANNELS 3 Zrotation Xrotation Yrotation
											JOINT LeftHandPinky3
											{
												OFFSET 2.46976 0.00000 0.00000
												CHANNELS 3 Zrotation Xrotation Yrotation
												End site
												{
													OFFSET 0.00000 0.00000 0.00000
												}
											}
										}
									}
								}
							}
						}
					}
					JOINT pCube4
					{
						OFFSET 0.00000 10.91090 1.10792
						CHANNELS 3 Zrotation Xrotation Yrotation
						End site
						{
							OFFSET 0.00000 0.00000 0.00000
						}
					}
				}
			}
		}
	}
	JOINT RightUpLeg
	{
		OFFSET -9.98441 0.00000 0.00000
		CHANNELS 3 Zrotation Xrotation Yrotation
		JOINT RightLeg
		{
			OFFSET 0.00000 -42.11790 0.00000
			CHANNELS 3 Zrotation Xrotation Yrotation
			JOINT RightFoot
			{
				OFFSET 0.00000 -45.00020 -0.00001
				CHANNELS 3 Zrotation Xrotation Yrotation
				JOINT RightForeFoot
				{
					OFFSET 0.00000 -3.74820 0.00000
					CHANNELS 3 Zrotation Xrotation Yrotation
					JOINT RightToeBase
					{
						OFFSET 0.00000 0.06325 14.43120
						CHANNELS 3 Zrotation Xrotation Yrotation
						End site
						{
							OFFSET 0.00000 0.00000 0.00000
						}
					}
				}
			}
		}
	}
	JOINT LeftUpLeg
	{
		OFFSET 9.98441 0.00000 0.00000
		CHANNELS 3 Zrotation Xrotation Yrotation
		JOINT LeftLeg
		{
			OFFSET 0.00000 -42.11800 0.00000
			CHANNELS 3 Zrotation Xrotation Yrotation
			JOINT LeftFoot
			{
				OFFSET 0.00000 -45.00070 0.00000
				CHANNELS 3 Zrotation Xrotation Yrotation
				JOINT LeftForeFoot
				{
					OFFSET 0.00000 -3.74824 0.00000
					CHANNELS 3 Zrotation Xrotation Yrotation
					JOINT LeftToeBase
					{
						OFFSET 0.00000 0.06325 14.43110
						CHANNELS 3 Zrotation Xrotation Yrotation
						End site
						{
							OFFSET 0.00000 0.00000 0.00000
						}
					}
				}
			}
		}
	}
}
MOTION
Frames: 4
Frame Time: 0.050000
-0.010348877060221034 -0.02508890619138417 -0.008457029461772634 -0.04842636431335028 0.014231595199234726 -0.03953422205325097 4.507149338020529 2.4364221918291746 -2.071422249034953 -0.6395176882460997 3.5239325043182306 0.3775118183568078 -0.7169503628776408 -1.180630009887235 1.5824862112417504 -0.025382182857288896 -0.30430507875410323 -0.24041653300063517 0.7747038679256557 11.871350844331792 -3.3512443755225743 0.3004224475173848 -0.6612063514517968 -9.23509321981951 1.4629251250428583 -16.949550183631864 -0.8406535975949506 -9.065683200259938 3.2308404242281763 -15.938279650266487 75.62777593795383 21.301749246374975 15.629624751519458 33.00027678969422 9.236984652844322 87.47637507345623 18.83175864097063 -0.3357170910133432 -7.768293488761308 4.497064704910632 -0.1498810116643009 -1.5741216107113905 0.025591668545005292 -0.03596303658489186 -56.261358024695845 -0.009546308049462956 -0.035549826912248554 -56.275435920125126 -38.72626768517737 -0.022127747807843903 -0.022123398564177246 0.008153001128166361 0.006622075533982719 0.008903026421019485 0.021594982970149244 -0.002914505247849732 -0.012854647177316434 -36.69806779553729 -0.01984201737876161 -0.020982181940454096 0.022750436422415785 -0.009252501614343232 0.025875247991425925 -0.018146150929526872 -0.0015946011457553869 0.002702415018774632 -19.72481155466038 -0.01921676775024017 0.022347612108914845 0.018814155351402698 0.030327411149031636 0.03352844764175423 -0.010891076861820679 -0.026675823089491502 -0.03725674194826059 24.08205378780418 -0.02863645332882742 -0.04429406807202745 28.892901441485193 -0.01861795866448429 0.026745476543270388 28.83261642434028 -0.00876855389002722 0.006066401333417845 8.098587329854086 2.094009708667229 13.889756215708902 -74.1252367323564 26.594422533936037 -10.230876431836956 -29.984185196592563 8.191617517744447 -80.63718885873152 -24.4907848217606 -8.456568761416332 6.060639697603808 -0.4982297997712246 0.05060672184846865 -8.146165817536325 -0.03259929398763217 -0.039299161419387635 44.54738854873895 0.02856703546251841 0.022121769595616896 44.57410326694761 12.440230764842603 0.0380166113004679 0.04191598619248324 0.03956158300824488 -0.006406112063656023 0.025584952279849787 -0.010057797809829754 0.01529362046803648 -0.006695646538074964 11.11053033411301 -0.028355196114753598 0.0018237144524255815 0.013425694145535202 -0.011338649618563894 0.002166757704676925 0.04859394876885706 -0.016921444470523253 0.008966681535491777 4.787671373207348 0.02258637386762278 -0.02365832757023882 -0.006211629993433231 -0.037191250219743635 0.000304733144782825 -0.04309866143772986 -0.02098906981386194 0.017277827566156142 -5.552692593769119 -0.03545221594958912 0.013918876862639346 -6.745782181148683 -0.028055000316072384 -0.02573963256718718 -6.762077069091778 0.046994618198661894 0.02484786052162508 0.03985074453892362 0.0005661317781560425 0.005698405803056081 7.9971767355979395 3.501858046890683 -19.23913180251523 0.007621028003198571 10.441701593680088 0.027872020922409285 -5.660785557189814 -15.62522269338732 3.187931604671384 -0.00851307923928912 -0.00816862080820178 -0.041064775107160986 -0.0133784903958813 4.6659125814983575 0.011557983618659692 12.495849511180221 -8.191746680347324 6.893166733273598 -0.012860363350976874 46.36230054186622 -0.033253112521908726 -4.349510405903974 -14.73378161278112 -3.848872210812915 0.02828371188991692 0.04323430578191308 0.04352648390654253 0.007081876297198215 -10.743329058810293 0.024821043869663814 
-0.03593721328430518 0.025887069291346543 -0.014548706172073995 0.0341209158964003 -0.016013292472192835 0.0038727078276499538 4.692578502605515 2.4266329630694776 -2.1319233468955434 -0.7227942340370348 3.4949716113552656 0.4217263708113394 -0.7060789923185838 -1.131487802929519 1.57506921136695 -0.1453059593833882 -0.38196386826970413 -0.26902560773754713 0.708508475886856 11.909371168176259 -3.260501078094914 0.3556377210797524 -0.5907973205962097 -8.609252412348194 1.484575418648025 -16.852001127009093 -0.7132787709700731 -9.351710450690828 3.2992479407418687 -16.17051569575224 77.04695465568778 19.89429611545118 15.278181175232785 27.56765328629422 8.049215703386187 87.52533336357898 18.349708189537456 -0.38587671536310925 -6.970609821815415 4.502545152211288 -0.14358635713876056 -1.5990892028992483 0.03315011474471772 -0.03420785191766132 -56.25346730887777 -0.0449745011810303 -0.0005457538540389341 -56.25639653114576 -38.797147679685956 -0.007254571246460292 -0.008034145700014891 -0.03200968925368763 -0.008862857363517874 0.011069960390975677 0.03130593688563419 -0.020066394934588214 -0.01223508259544239 -36.68955281034772 0.02221181781033335 0.014122107253343242 -0.00015257357175694976 -0.03517171762878837 0.014749560945883382 -0.02802692304874941 0.02182845334214144 0.020801715335785308 -19.753175370374766 0.03830027960479586 0.029515313557257176 0.006125629712171666 -0.03949430709080981 0.037856880134477695 -0.03297576525120528 -0.03722682816966961 0.028039586195094415 24.012079727662993 -0.03735024266317598 -0.01094037816724873 28.847341403796445 -0.019131319160191996 0.026063153171241013 28.863617211026877 -0.001460453736066074 -0.017648727947596584 8.501870516264477 2.1857530950261572 13.992218555416281 -74.71633284270733 25.721488358453776 -10.679214289017944 -26.369827789088593 7.186814241700518 -78.53123314675388 -23.695779207825666 -8.040091858140487 5.788088080869093 -0.5161362597115617 0.0771591875892747 -8.127507314087586 0.01446493244334188 0.008079779562172625 44.53837556772788 -0.04209185967730994 0.012205919654120628 44.54727959400848 12.50762260123181 -0.005734317390901585 -0.009394820666507039 0.017866643254746874 -0.04610338965316697 0.026375391881074194 -0.027893681237938815 0.02809656700278871 -0.004750800299939098 11.066050923085603 -0.005890128710700993 0.03478120180112805 0.04800753015197018 -0.02428135383670849 0.03396699381483304 -0.010884546690984754 -0.029198523261232463 0.02158147863430669 4.752103962589495 0.0030455999601573733 0.023437913756477642 -0.047891873692966665 0.027226296078428497 -0.03930857053355767 -0.007815795937138435 0.04375345278868595 -0.034615712899520375 -5.590972148280754 0.009972383342821104 -0.007515792226107838 -6.765886261409554 -0.002065305226289739 -0.001168328083872606 -6.742134242511629 -0.04035269415627239 -0.04268293611766612 0.02329480552012991 -0.04143278358018147 0.04829157780996645 8.05351435069313 3.4745406275157835 -19.207646421574886 -0.004885346161877374 10.375910535301141 -0.0040826542888817464 -5.601929609395969 -15.679702335720831 3.169083548934942 -0.029417676380721826 0.04058420484452718 -0.019142098907457245 -0.010464678356459754 4.6853505379688505 -0.031933494217533914 12.499346120530426 -8.254344061416012 6.835131718426318 -0.03894564590430955 46.36738501304328 -0.013408699833514696 -4.304906632868786 -14.769495786728887 -3.7983267585849507 -0.03071044647807299 0.02001407329660556 0.023691088926341378 0.04555471449637467 -10.794245256662192 0.04454437223249347 
0.017782536329664242 0.005648685889057349 -0.024709632192512 0.04139034642118097 0.00645790962266202 0.021143799994322105 4.7804218133799345 2.3463504122730447 -2.133044136675079 -0.7275629402972196 3.5211927591379006 0.35328298699211613 -0.6778793725541112 -1.208097721621967 1.543812093084346 -0.17564906639341088 -0.40243775441176854 -0.21493793138836653 0.6007402911155 11.935438293908247 -3.030599147463995 0.3053285652235818 -0.42098308563382686 -7.991289838716352 1.4018852767400225 -16.769891207500187 -0.646288588264405 -9.561324295724253 3.386040237454827 -16.42261710457881 78.21942924086737 18.982201591655574 14.678362373550552 22.443316009961123 6.79437728680686 88.42316484333574 17.80289975086877 -0.4814450484831093 -6.203935845555876 4.565447707008941 -0.13412172915737094 -1.5576679037709014 0.04158540483311322 -0.00813580206665837 -56.19400523210525 -0.04009956473657694 0.010377551326893093 -56.24362951518113 -38.78720621612552 0.00879470825964325 0.03318609594180394 -0.019257174410092226 -0.02603793343535363 -0.03313080330002756 0.024912449486446882 0.048512017531271 0.039408293504430314 -36.73594876704225 -0.01664563909082474 -0.0037797541460124753 0.03003460987048054 0.04199382080480421 0.0189806472020956 0.02537449842453649 0.02277522697848893 -0.024754992993846793 -19.740434797872215 -0.0419572259116881 0.046129755664459045 0.014346617065642069 0.028808488379723673 -0.04975823651279039 -0.01570348622063672 -0.009374343464316206 -0.006864933719968791 24.102609188362234 0.002253523430378259 -0.03427810533246696 28.82097195155441 0.04847372298768421 0.023083122056552417 28.853868438229206 0.014691306159267314 0.04746951871161461 8.7796953311901 2.237857625618216 14.1783717832367 -75.22320574992372 25.220066581288762 -10.68869324230023 -24.32379356495362 6.868144288829263 -77.46835292591382 -23.031332094131194 -7.839838905689529 5.633226381483803 -0.5113068906768196 0.04839179956309061 -8.099556984402188 -0.0446609985180598 -0.00744215983000281 44.58601292701513 0.033897266408899014 -0.0014002121540945824 44.55741609994672 12.434100213800898 -0.009871909081121798 -0.029590291693520832 0.005640518878894296 -0.010594203650040013 -0.03860305527802303 -0.007293610282894736 0.0003636648227633583 -0.04837293173059131 11.065064395051367 -0.0016079323235130103 -0.02383135780535574 -0.006126282937878849 0.027074220350091067 -0.04920285577818359 0.004041692889889122 -0.043804261754805646 -0.02070741999707744 4.805044200631951 -0.038001373235494615 0.026544984738979406 0.01805506863213616 -0.04326945660239443 0.014824102868848957 0.04652632824841946 0.03490447884559377 0.006127128208630249 -5.58928339188607 -0.012458222613655257 -0.01515948912633455 -6.7617126738978675 -0.017253349258951917 0.04683340565813174 -6.7412548257283404 0.03417406077198171 0.017698117102594942 -0.021139181951650224 0.040650237711366125 0.0073372182202914756 7.995889336200715 3.451567698023113 -19.230370435718736 -0.01266868579470343 10.353546593741294 -0.0013276586011288678 -5.610598002277708 -15.650395642767855 3.1719536366494325 0.011648538201247153 -0.0346233439618487 -0.010936775093506225 0.03148195231767453 4.6894152702393335 0.04106458254347362 12.440018142674548 -8.277615179475568 6.905219604862181 -0.0025177978651851228 46.36830804776987 0.046997718417713524 -4.281284742212389 -14.744906783814214 -3.8307988099551467 0.017435622126057652 0.010451027547240484 0.012708570666315692 0.006433802495788467 -10.76112037337684 0.008915218918714905 
0.04596293736244059 0.0023759734119901247 -0.028139491185776862 -0.03497275803043386 0.027257804320143592 -0.022718058611019026 4.757300591639857 2.2600934019627674 -2.229237916311704 -0.6862523473686492 3.442326241247683 0.3745729842841138 -0.613973792021051 -1.2138443620501334 1.5073553555119394 -0.3158312569154499 -0.3939935855762059 -0.17634010101794903 0.5647556895092293 11.929533610631044 -2.7059536443638783 0.33684559468692704 -0.4434690645656438 -7.050476528383977 1.414989321533146 -16.66358818038884 -0.5992458771275673 -9.624909961635979 3.390947400173011 -16.720032621448702 79.36613360957563 18.92819293882778 13.487954118972487 17.478597899952703 5.199848586225069 89.97485064886868 17.25790365565409 -0.49843077880324504 -5.566716484644614 4.544862963061067 -0.15054783823343051 -1.5547258109643167 -0.016227947928379213 -0.0049205584098809835 -56.19722179045335 -0.006362067993557634 0.01680782986963626 -56.25586838197249 -38.73563435094071 -0.04672272337222376 0.018100554291843946 -0.020713359609731745 -0.020890375013719247 -0.007246762693558462 0.015854644083978024 0.02100627595657778 -0.0020203602787460537 -36.6555549375496 0.030854529757542062 0.04466288697021742 0.045697014622071826 0.024430207270480432 -0.0239937927711308 -0.035305831764267936 -0.031604951004445464 0.04210373306996276 -19.790135365962293 -0.03380845599843342 0.005845634501562169 0.012350620169804313 0.0352837092921561 0.020844982758000053 0.03946716276075152 -0.0470863222860166 -0.03502253555338029 24.030524131124196 -0.02730765793349818 0.02108124544804963 28.850620131656054 5.259683607315941e-05 0.02117900616954145 28.898511397961133 0.00888945761343343 0.03225505420660593 9.028174430324428 2.193391077443541 14.391742792564958 -75.76715968206251 25.172239552166932 -10.450207404453021 -23.790151093352527 7.0671438096272166 -77.5849163577053 -22.56032285062344 -8.0140832886565 5.737234188741564 -0.4957146952982556 0.07524154130677371 -8.104519451989953 -0.028729770529623434 0.006670822276213214 44.5599824797952 0.044480695247958606 -0.04358036902185434 44.56672328551731 12.481437352715371 0.0228743628497578 0.008509776078719233 -0.028098977890162954 -0.04740420506042576 0.03213662604365737 -0.014976558428457997 -0.021712081295339466 -0.010627251472116534 11.150122688168292 -0.020155047786453384 -0.036400653453271856 0.012726978439463865 0.036499423015623846 0.030209978066617627 -0.025889661176270413 -0.0023257822068139485 0.02258892502155346 4.7392588604296115 -0.016012624460067564 -0.01366779335938963 -0.006760144721767496 0.03682049459685194 -0.0042118489161707354 0.04737097254854969 0.004539584264842583 0.00029009831246707524 -5.649903236484076 0.004960977143950163 0.04845189809798542 -6.681460903514211 0.016227176763983574 -0.0056393403483761 -6.70599205650748 -0.038444686714623595 -0.026857405506043406 -0.029568948198092634 0.045334726070216755 -0.033876824988482046 8.044185851794179 3.5072031754893906 -19.187976345587565 0.0023130404410093763 10.417951541828305 -0.006993904136553899 -5.581232657326448 -15.664825102464784 3.160493196597958 -0.026455975525897877 0.005578234282542301 0.027754781335156103 -0.033738598758215325 4.704190862475797 0.0062969834283403405 12.49390045757202 -8.258599891822799 6.836536537732923 0.030041582401725143 46.371705171571385 -0.0055832540704923335 -4.297175031177541 -14.74166735470449 -3.8080315123299564 0.03968483665530601 0.04507874319165141 0.042953719872988926 0.04614680859858908 -10.741932454406207 -0.021105264254718533 
